<?xml version="1.0" encoding="utf-8"?>
<!DOCTYPE svg PUBLIC "-//W3C//DTD SVG 1.1//EN" "http://www.w3.org/Graphics/SVG/1.1/DTD/svg11.dtd">
<!-- exported from Silhouette Studio® Business Edition V4.5.152ssbe -->
<svg version="1.1" xmlns="http://www.w3.org/2000/svg" xmlns:xlink="http://www.w3.org/1999/xlink" width="304.8mm" height="304.8mm" viewBox="0 0 304.8 304.8">
<defs>
<path id="path_e56e9fbddfcb850213344c23d6b9332a" d="M 162.8705 63.53876 C 162.8705 77.66374 146.4663 89.13754 126.2715 89.13754 C 106.0767 89.13754 89.67244 77.66374 89.67244 63.53876 C 89.67244 49.41377 106.0767 37.93998 126.2715 37.93998 C 146.4663 37.93998 162.8705 49.41377 162.8705 63.53876 Z" fill-rule="evenodd" fill="#C7E8E5" fill-opacity="1" stroke="#C7E8E5" stroke-opacity="1" stroke-width="0.3527778" stroke-linecap="round" stroke-linejoin="round"/>
<path id="path_b92f1cd44d1148d72b0a3643ebac45ef" d="M 255.7811 111.0101 C 255.7152 158.9755 224.8316 186.4862 205.8434 197.565 C 176.0874 214.9264 140.8668 215.6495 110.1785 199.9947 C 64.0425 176.4597 56.79822 130.3691 55.94967 116.4507 C 52.34829 57.37898 100.7403 8.437313 159.8596 11.12903 C 190.0618 12.50414 212.6256 26.52342 225.9424 39.67471 C 231.4441 45.10806 255.8363 70.80127 255.7811 111.0101 Z" fill-rule="evenodd" fill="#6FC9C0" fill-opacity="1" stroke="#000000" stroke-opacity="1" stroke-width="2.469445" stroke-linecap="round" stroke-linejoin="round"/>
<path id="path_38a43753d72438bf17d9201e48d8b68a" d="M 205.613 37.33267 C 232.4151 67.80044 224.9496 118.2684 188.9569 149.9299 C 152.9643 181.5915 101.9559 182.5613 75.15373 152.0935 C 48.35161 121.6257 55.81712 71.15788 91.80978 39.49628 C 127.8024 7.834694 178.8109 6.864897 205.613 37.33267 Z" fill-rule="evenodd" fill="#A9DCD9" fill-opacity="1" stroke="#8CD2CC" stroke-opacity="1" stroke-width="0.3527778" stroke-linecap="round" stroke-linejoin="round"/>
<path id="path_9905581ce78aafd0e17f4a9de268f62e" d="M 169.9198 41.76904 C 190.9543 63.60289 189.2523 99.43966 166.1226 121.7233 C 142.9929 144.0069 107.1183 144.3722 86.08383 122.5383 C 65.04936 100.7044 66.75133 64.86766 89.88101 42.58405 C 113.0107 20.30047 148.8854 19.93517 169.9198 41.76904 Z" fill-rule="evenodd" fill="#C7E8E5" fill-opacity="1" stroke="#C7E8E5" stroke-opacity="1" stroke-width="0.3527778" stroke-linecap="round" stroke-linejoin="round"/>
<path id="path_d5da27c840dea4b7547e2d86b0f31b5a" d="M 135.7644 51.64969 C 142.3534 58.42245 139.4417 71.96375 129.2681 81.86124 C 119.0946 91.75875 105.4783 94.29699 98.88937 87.52423 C 92.30038 80.75147 95.21211 67.21018 105.3856 57.31268 C 115.5592 47.41518 129.1754 44.87693 135.7644 51.64969 Z" fill-rule="evenodd" fill="#E5F4F4" fill-opacity="1" stroke="#E5F4F4" stroke-opacity="1" stroke-width="0.3527778" stroke-linecap="round" stroke-linejoin="round"/>
<path id="path_83e3916260326fd6afef89cc17166dd5" d="M 212.6796 173.9762 L 198.5333 177.8448 L 198.5591 177.4225 C 198.571 177.0864 198.5715 176.7287 198.5856 176.3737 C 198.587 176.3391 198.7157 174.1768 198.478 172.479 C 198.3244 171.3826 198.7491 172.3888 198.0771 169.4678 C 197.8689 168.5631 197.1375 167.1242 197.1261 167.1046 C 196.4835 165.9978 196.8833 166.4184 196.6221 166.0158 C 196.4153 165.6971 196.3992 165.8624 195.8956 165.3709 L 195.7564 165.2303 L 216.0443 159.9205 C 225.3072 157.5054 235.2273 154.9318 245.9183 152.1819 C 267.3003 146.6823 268.114 153.4509 278.0047 149.8458 C 280.5056 148.9342 266.1028 145.9961 267.1008 144.6572 C 267.3827 144.279 272.8257 143.117 278.9625 142.654 C 285.0993 142.191 291.93 142.4269 294.9875 144.8442 C 294.6563 145.4905 287.8115 153.1394 283.302 153.9617 L 247.4303 164.473 L 213.4093 173.7766 L 213.3384 173.7674 C 213.0935 173.7596 212.8911 173.8227 212.7327 173.931 L 212.6796 173.9762 Z" fill-rule="evenodd" fill="#000000" fill-opacity="1" stroke="#000000" stroke-opacity="1" stroke-width="0.8819444" stroke-linecap="round" stroke-linejoin="round"/>
<path id="path_94e09a883112c9b3cf12280e27f35131" d="M 97.28812 193.9315 L 96.50403 194.0604 C 85.80901 195.8721 74.74049 198.157 60.61216 202.196 C 52.22124 204.5948 41.46421 206.6532 28.34104 208.3712 C 25.70808 211.0933 23.37524 208.6831 22.86873 206.0204 L 21.62329 199.4731 C 21.44238 198.522 20.28131 193.4733 25.95663 194.7004 L 58.63986 188.8103 C 69.24391 188.2792 78.27798 187.0539 86.89136 185.4274 L 88.88551 185.041 L 89.02914 185.2244 C 89.40204 185.7392 89.28399 185.8404 89.91655 186.7945 C 91.50227 189.1861 92.93339 190.933 94.44029 192.0608 L 97.28812 193.9315 Z" fill-rule="evenodd" fill="#000000" fill-opacity="1" stroke="#000000" stroke-opacity="1" stroke-width="0.8819444" stroke-linecap="round" stroke-linejoin="round"/>
<path id="path_a2ea57487a682e0377ce5956663f21df" d="M 55.80263 109.7498 C 100.1501 127.4485 141.6237 118.6449 175.8513 101.0561 L 177.0037 100.4527" fill-rule="evenodd" fill="none" fill-opacity="1" stroke="#000000" stroke-opacity="1" stroke-width="2.028472" stroke-linecap="round" stroke-linejoin="round"/>
<path id="path_8bdc584c8545a8f240fa45593c288546" d="M 178.0994 99.87885 L 178.6106 99.61115 C 186.0401 95.64732 193.1144 91.28297 199.7874 86.70567 L 199.8043 86.69395" fill-rule="evenodd" fill="none" fill-opacity="1" stroke="#000000" stroke-opacity="1" stroke-width="2.028472" stroke-linecap="round" stroke-linejoin="round"/>
<path id="path_3195afee94a48671bd99bdca84fb1431" d="M 199.8056 86.69302 L 199.8682 86.64966" fill-rule="evenodd" fill="none" fill-opacity="1" stroke="#000000" stroke-opacity="1" stroke-width="2.028472" stroke-linecap="round" stroke-linejoin="round"/>
<path id="path_398f513151316f384fc812a41f70d2a8" d="M 200.6822 86.08539 L 201.7772 85.32629 C 215.6208 75.6285 227.6738 65.07446 237.5073 55.40166" fill-rule="evenodd" fill="none" fill-opacity="1" stroke="#000000" stroke-opacity="1" stroke-width="2.028472" stroke-linecap="round" stroke-linejoin="round"/>
<path id="path_735631fb91745b5b05f9a0ee160fcf9a" d="M 58.69717 134.8113 C 62.40018 140.0455 99.57486 145.4331 141.9663 135.2433 C 159.2043 131.0997 173.7282 125.5705 185.9606 119.4382 L 187.6766 118.5431" fill-rule="evenodd" fill="none" fill-opacity="1" stroke="#000000" stroke-opacity="1" stroke-width="2.028472" stroke-linecap="round" stroke-linejoin="round"/>
<path id="path_0e8e4a8f3d3892864d87631086f7e364" d="M 187.4396 118.6595 L 188.1516 118.2961 C 195.3448 114.5605 201.7166 110.6239 207.3591 106.6572 L 210.6577 104.323" fill-rule="evenodd" fill="none" fill-opacity="1" stroke="#000000" stroke-opacity="1" stroke-width="2.028472" stroke-linecap="round" stroke-linejoin="round"/>
<path id="path_ee4046f29b9f8a4b59109372177916db" d="M 210.689 104.2502 L 210.9631 104.0479 C 230.4467 89.52305 240.4484 75.09698 245.4855 69.13202" fill-rule="evenodd" fill="none" fill-opacity="1" stroke="#000000" stroke-opacity="1" stroke-width="2.028472" stroke-linecap="round" stroke-linejoin="round"/>
<path id="path_cf6c008785f79757b10125da95e76c51" d="M 68.56319 160.3497 C 73.8648 168.4168 107.8105 169.9585 162.1294 149.8559 C 180.4851 143.0627 214.8314 128.6952 252.6963 89.68126" fill-rule="evenodd" fill="none" fill-opacity="1" stroke="#000000" stroke-opacity="1" stroke-width="2.028472" stroke-linecap="round" stroke-linejoin="round"/>
<path id="path_2b308a82889391a2e7dee9ad5d05eb69" d="M 87.18095 38.93516 C 129.8246 51.52192 159.8353 71.7012 177.2127 99.47296 L 177.4627 99.87886" fill-rule="evenodd" fill="none" fill-opacity="1" stroke="#000000" stroke-opacity="1" stroke-width="2.469445" stroke-linecap="round" stroke-linejoin="round"/>
<path id="path_813b913a5f048ec0ca36e407379ef894" d="M 192.0924 136.7245 L 192.4096 138.1313 C 196.8085 158.3797 196.7804 178.17 192.1129 203.8672" fill-rule="evenodd" fill="none" fill-opacity="1" stroke="#000000" stroke-opacity="1" stroke-width="2.469445" stroke-linecap="round" stroke-linejoin="round"/>
<path id="path_9eed236dad9918282f86e1b8bb401b0f" d="M 100.289 28.17988 C 150.4831 34.01911 181.3107 57.93827 199.5627 85.79265 L 199.9853 86.44617" fill-rule="evenodd" fill="none" fill-opacity="1" stroke="#000000" stroke-opacity="1" stroke-width="2.469445" stroke-linecap="round" stroke-linejoin="round"/>
<path id="path_00a77ba29bc4ca6e28a71c143926484a" d="M 217.0383 121.8344 C 225.9722 148.6263 225.9538 171.4286 223.0928 184.239" fill-rule="evenodd" fill="none" fill-opacity="1" stroke="#000000" stroke-opacity="1" stroke-width="2.469445" stroke-linecap="round" stroke-linejoin="round"/>
<path id="path_3384b2851713d5575318581f50060ce3" d="M 110.8043 21.4679 C 164.8219 21.89704 196.7036 45.97151 215.5177 73.89685" fill-rule="evenodd" fill="none" fill-opacity="1" stroke="#000000" stroke-opacity="1" stroke-width="2.469445" stroke-linecap="round" stroke-linejoin="round"/>
<path id="path_f37b4a1064f7107bb07fa0385547e068" d="M 232.7605 109.4524 C 243.9611 138.8999 242.5826 159.5107 242.5826 159.5107" fill-rule="evenodd" fill="none" fill-opacity="1" stroke="#000000" stroke-opacity="1" stroke-width="2.469445" stroke-linecap="round" stroke-linejoin="round"/>
<path id="path_e0de6126c3a0ef28586be7ec4ce733c9" d="M 134.8749 13.4114 C 185.3455 17.03307 211.7088 35.50464 229.7744 62.11578" fill-rule="evenodd" fill="none" fill-opacity="1" stroke="#000000" stroke-opacity="1" stroke-width="2.469445" stroke-linecap="round" stroke-linejoin="round"/>
<path id="path_046ff8df0d07521a1f669ac51e843f0f" d="M 247.8519 95.00774 C 251.8215 106.1399 253.37 116.169 254.0031 126.1321" fill-rule="evenodd" fill="none" fill-opacity="1" stroke="#000000" stroke-opacity="1" stroke-width="2.469445" stroke-linecap="round" stroke-linejoin="round"/>
<path id="path_de10da09d285be6cde01e8cd6f5cad63" d="M 152.3275 71.94504 C 147.784 79.02036 142.424 95.41171 143.4906 113.1317" fill-rule="evenodd" fill="none" fill-opacity="1" stroke="#000000" stroke-opacity="1" stroke-width="3.175" stroke-linecap="round" stroke-linejoin="round"/>
<path id="path_8af7fcf7d043322779b00d38fe5b586a" d="M 155.4992 153.4142 C 165.2752 158.7788 176.9377 159.857 194.3771 160.6506" fill-rule="evenodd" fill="none" fill-opacity="1" stroke="#000000" stroke-opacity="1" stroke-width="3.175" stroke-linecap="round" stroke-linejoin="round"/>
<path id="path_93564a8e9973ec7ce182edb7277fb113" d="M 139.8412 64.38509 C 130.8315 69.69156 128.9433 75.96851 126.4248 81.61191 C 120.6308 94.59474 122.0004 106.8072 122.0193 117.7677" fill-rule="evenodd" fill="none" fill-opacity="1" stroke="#000000" stroke-opacity="1" stroke-width="3.175" stroke-linecap="round" stroke-linejoin="round"/>
<path id="path_484266d460d07c25f52eb17deb2845a6" d="M 139.1344 158.1387 C 151.782 169.181 170.5131 173.7255 194.909 171.9554" fill-rule="evenodd" fill="none" fill-opacity="1" stroke="#000000" stroke-opacity="1" stroke-width="3.175" stroke-linecap="round" stroke-linejoin="round"/>
<path id="path_88c2c6ee26ecd52454e1060b245133b2" d="M 168.4355 89.66146 C 162.4576 95.9225 159.0526 101.5984 158.0509 108.3957" fill-rule="evenodd" fill="none" fill-opacity="1" stroke="#000000" stroke-opacity="1" stroke-width="3.175" stroke-linecap="round" stroke-linejoin="round"/>
<path id="path_b6fe160601813a0e9df2e634db453035" d="M 175.8871 144.9959 C 181.3611 148.2438 186.7608 148.6859 193.7278 148.2946" fill-rule="evenodd" fill="none" fill-opacity="1" stroke="#000000" stroke-opacity="1" stroke-width="3.175" stroke-linecap="round" stroke-linejoin="round"/>
<path id="path_3318b33a437d4faf4b682700624396ad" d="M 93.96497 32.03746 C 141.9342 42.86516 171.6928 66.18623 189.613 93.24084" fill-rule="evenodd" fill="none" fill-opacity="1" stroke="#000000" stroke-opacity="1" stroke-width="2.028472" stroke-linecap="round" stroke-linejoin="round"/>
<path id="path_8accbd894d189d761b1f973820dacaf3" d="M 205.8949 128.5783 C 213.8226 153.1781 213.9679 175.6392 210.7131 194.0226" fill-rule="evenodd" fill="none" fill-opacity="1" stroke="#000000" stroke-opacity="1" stroke-width="2.028472" stroke-linecap="round" stroke-linejoin="round"/>
<path id="path_6086bf4306ae5394ea07115b5596cad5" d="M 86.40971 39.23948 C 78.50069 61.93091 71.32514 87.96268 99.64705 118.7772" fill-rule="evenodd" fill="none" fill-opacity="1" stroke="#000000" stroke-opacity="1" stroke-width="3.175" stroke-linecap="round" stroke-linejoin="round"/>
<path id="path_51b8315beedc4096733c43be4ee7ec9c" d="M 119.3259 163.2201 C 138.0237 184.4233 162.8738 197.0541 191.3001 202.9844" fill-rule="evenodd" fill="none" fill-opacity="1" stroke="#000000" stroke-opacity="1" stroke-width="3.175" stroke-linecap="round" stroke-linejoin="round"/>
<path id="path_844362ef679741349191ba06282ebad3" d="M 120.9364 53.64972 C 109.0891 68.3715 101.0113 97.19925 112.1692 119.1883" fill-rule="evenodd" fill="none" fill-opacity="1" stroke="#000000" stroke-opacity="1" stroke-width="2.028472" stroke-linecap="round" stroke-linejoin="round"/>
<path id="path_3ef1671da386639e8f9b0da29be0bd52" d="M 138.9977 157.9561 C 155.2683 185.1532 191.3001 202.9844 191.3001 202.9844" fill-rule="evenodd" fill="none" fill-opacity="1" stroke="#000000" stroke-opacity="1" stroke-width="2.028472" stroke-linecap="round" stroke-linejoin="round"/>
<path id="path_0212c0a5bfd49edb49d0528ed7462a24" d="M 57.0517 98.75078 C 67.76228 89.07601 75.19247 83.32566 80.75726 86.43232" fill-rule="evenodd" fill="none" fill-opacity="1" stroke="#000000" stroke-opacity="1" stroke-width="2.028472" stroke-linecap="round" stroke-linejoin="round"/>
<path id="path_56b9c19a0751ca732be66e64f5a095e4" d="M 57.0517 97.96307 C 67.96293 80.8581 72.42259 74.79552 79.01798 73.79185" fill-rule="evenodd" fill="none" fill-opacity="1" stroke="#000000" stroke-opacity="1" stroke-width="2.028472" stroke-linecap="round" stroke-linejoin="round"/>
<path id="path_d3417356467bdc7c037c02e304f720a7" d="M 56.68005 97.30495 C 64.42008 71.64991 75.53214 60.30715 79.34997 60.14116" fill-rule="evenodd" fill="none" fill-opacity="1" stroke="#000000" stroke-opacity="1" stroke-width="2.028472" stroke-linecap="round" stroke-linejoin="round"/>
<path id="path_0ff97fe241f97b280484a0f4b643c18e" d="M 55.33517 107.6605 C 65.38431 94.04652 81.53043 90.64238 85.43784 100.5994" fill-rule="evenodd" fill="none" fill-opacity="1" stroke="#000000" stroke-opacity="1" stroke-width="2.028472" stroke-linecap="round" stroke-linejoin="round"/>
<path id="path_60a5eae169b043aeacd07fd82f255ca9" d="M 56.32527 108.392 C 72.85814 101.6195 78.13669 99.89321 92.67764 110.5499" fill-rule="evenodd" fill="none" fill-opacity="1" stroke="#000000" stroke-opacity="1" stroke-width="2.028472" stroke-linecap="round" stroke-linejoin="round"/>
<path id="path_b7497fd820eee62da38dd1935d09c3a2" d="M 168.6161 209.7449 C 116.3573 199.5387 93.09029 166.2466 93.09029 166.2466" fill-rule="evenodd" fill="none" fill-opacity="1" stroke="#000000" stroke-opacity="1" stroke-width="2.028472" stroke-linecap="round" stroke-linejoin="round"/>
<path id="path_df8dc538b73d5260fe3c0f8cc2736230" d="M 197.176 168.8082 L 197.1903 168.8082 L 197.176 169.2372 L 197.176 169.5231 L 197.176 169.8091 L 197.319 170.238 L 197.462 170.524 L 197.6049 170.9529" fill-rule="evenodd" fill="none" fill-opacity="1" stroke="#000000" stroke-opacity="1" stroke-width="1.763889" stroke-linecap="round" stroke-linejoin="round"/>
<path id="path_7002ac4571387451aaef95d421b6ce1a" d="M 196.1752 167.6644 L 196.1895 167.6644 L 196.1752 167.9504 L 196.3181 168.2363 L 196.4611 168.6653 L 196.6041 169.0942 L 196.6041 169.5231 L 196.8901 169.8091 L 197.0331 170.095 L 197.176 170.381 L 197.319 170.6669 L 197.319 170.9529 L 197.319 171.2388 L 197.6049 170.8099 L 197.7479 170.381 L 197.7479 169.952 L 197.8909 169.5231 L 198.1768 169.2372 L 198.4628 168.8082 L 198.6058 169.0942" fill-rule="evenodd" fill="none" fill-opacity="1" stroke="#000000" stroke-opacity="1" stroke-width="0.3527778" stroke-linecap="round" stroke-linejoin="round"/>
<path id="path_936badda352beeec7544544fff271782" d="M 247.2182 192.1136 L 247.2325 192.1136" fill-rule="evenodd" fill="none" fill-opacity="1" stroke="#000000" stroke-opacity="1" stroke-width="0.3527778" stroke-linecap="round" stroke-linejoin="round"/>
<path id="path_90d8a7b631172d04625d972e37bd96a2" d="M 197.1864 174.4933 L 197.191 174.4933 L 197.1864 174.4014 L 197.1864 174.2634 L 197.1864 174.0794 L 197.1864 173.8955 L 197.1864 173.7115 L 197.1864 173.5276 L 197.1864 173.3437 L 197.1864 173.2517 L 197.1864 173.1137 L 197.1864 173.0218 L 197.1864 172.9298 L 197.2324 172.8378 L 197.3244 172.7458 L 197.3704 172.6539 L 197.4163 172.5619 L 197.4623 172.4699 L 197.4623 172.3779 L 197.5083 172.286 L 197.5083 172.194 L 197.5083 172.102 L 197.5543 172.01 L 197.5543 171.9181 L 197.5543 171.8261 L 197.5083 171.7341 L 197.5083 171.6422 L 197.5083 171.5502 L 197.4623 171.4122 L 197.4623 171.2743 L 197.4163 171.1823 L 197.4163 171.0443 L 197.3704 170.8604 L 197.3244 170.7684 L 197.2784 170.6304 L 197.2784 170.4925 L 197.2324 170.4005 L 197.2324 170.2166 L 197.1864 169.8947 L 197.1404 169.6647 L 197.0944 169.4808 L 197.0944 169.3428 L 197.0944 169.2509 L 197.0944 169.1589 L 197.0944 169.0669 L 197.0944 168.9749 L 197.0944 168.837 L 197.0944 168.699 L 197.0944 168.607 L 197.1404 168.4691 L 197.1404 168.3771 L 197.1404 168.2851 L 197.1404 168.1932 L 197.1404 168.1012 L 197.1404 168.0092 L 197.1404 167.9172 L 197.1404 167.7793 L 197.1404 167.6873 L 197.1404 167.5953 L 197.1404 167.7333 L 197.1404 168.0552 L 197.1404 168.4691 L 197.1864 168.9289 L 197.2324 169.3428 L 197.2784 169.8027 L 197.3244 170.2166 L 197.3704 170.5385 L 197.4163 170.8144 L 197.5083 170.9983 L 197.6003 171.2283 L 197.6463 171.4122 L 197.7383 171.5962 L 197.7842 171.7801 L 197.8302 171.9181 L 197.8762 172.056 L 197.8762 172.148 L 197.9222 172.286 L 197.9222 172.4239 L 197.9682 172.6079 L 197.9682 172.7458 L 198.0142 172.8838 L 198.0142 173.0218 L 198.0142 173.1137 L 198.0142 173.2057 L 198.0602 173.2977 L 198.0602 173.3896 L 198.1061 173.5276 L 198.1061 173.6196 L 198.1061 173.7115 L 198.1521 173.8035 L 198.1521 173.8955 L 198.1521 174.0335 L 198.1981 174.1254 L 198.1981 174.2174 L 198.1981 174.3554 L 198.1981 174.4473 L 198.1981 174.5393 L 198.1981 174.6313 L 198.1981 174.7692 L 198.1981 174.9532 L 198.1981 175.0452 L 198.1981 175.1371 L 198.1981 175.2751 L 198.1521 175.3671 L 198.1521 175.459 L 198.1521 175.551 L 198.1061 175.643 L 198.0602 175.735 L 198.0602 175.8269 L 198.0142 175.9189 L 197.8762 175.8269 L 197.6923 175.735 L 197.5083 175.643 L 197.4163 175.597 L 197.3244 175.505 L 197.2324 175.4131 L 197.1864 175.3211 L 197.1404 175.2291 L 197.0944 175.3211 L 197.0944 175.4131 L 197.0944 175.551 L 197.0484 175.689 L 197.0484 175.7809 L 197.0025 175.8729 L 197.0025 175.9649 L 197.0025 176.0569 L 196.9565 176.1488 L 196.9565 176.2408 L 196.9565 176.3328 L 196.9105 176.4248 L 196.9105 176.5167 L 196.9105 176.6087 L 196.9105 176.7007 L 197.0025 176.7926 L 197.0944 176.7926 L 197.2324 176.7926 L 197.3244 176.7926 L 197.4163 176.7926 L 197.5543 176.7926 L 197.6463 176.7467 L 197.7383 176.7467 L 197.8302 176.7467 L 197.9222 176.7467 L 198.0142 176.7467 L 198.1061 176.7007 L 198.1981 176.7007 L 198.1981 176.7926 L 198.1061 176.8386 L 198.0142 176.8846 L 197.8762 176.9306 L 197.6923 176.9306 L 197.6003 177.0226 L 197.5083 177.0226 L 197.4163 177.0226 L 197.2784 177.0226 L 197.1864 177.0686 L 197.0484 177.0686 L 196.9565 177.0686 L 196.8645 177.0686 L 196.7725 177.1146 L 196.6806 177.1606 L 196.6806 177.2525 L 196.7725 177.2525 L 196.9105 177.2525 L 197.0484 177.2525 L 197.1404 177.2525 L 197.2324 177.2525 L 197.3244 177.2525 L 197.4163 177.2525 L 197.5083 177.2525 L 197.6003 177.2525 L 197.7383 177.2525 L 197.8302 177.2525 L 197.9682 177.2525 L 198.1061 177.2525 L 198.1981 177.2525 L 198.3361 177.2525 L 198.2441 177.2065 L 198.1521 177.2525 L 198.0602 177.2525 L 197.9682 177.2525 L 197.8302 177.2985 L 197.6923 177.2985 L 197.6003 177.3445 L 197.5083 177.3905 L 197.4163 177.3905 L 197.3244 177.4365 L 197.2324 177.4365 L 197.1404 177.4825 L 197.0484 177.5284 L 197.0025 177.6204 L 196.9105 177.6204 L 196.8185 177.6664 L 196.7725 177.7584 L 196.6806 177.8044 L 196.5426 177.8044 L 196.6346 177.8503 L 196.7265 177.8044 L 196.8185 177.7584 L 196.9565 177.7124 L 197.0484 177.7124 L 197.1404 177.7124 L 197.2324 177.6664 L 197.3244 177.6204 L 197.4163 177.6204 L 197.5083 177.5284 L 197.6003 177.5284 L 197.7383 177.4825 L 197.8302 177.4365 L 197.9222 177.3905 L 198.0142 177.3445 L 198.1061 177.3445 L 198.1061 177.4365 L 198.0142 177.4365 L 197.9222 177.5284 L 197.8302 177.5744 L 197.7383 177.6204 L 197.6463 177.6664 L 197.5543 177.6664 L 197.4623 177.6664 L 197.3704 177.7124 L 197.2784 177.7584 L 197.1864 177.7584 L 197.0944 177.8044 L 197.0025 177.8044 L 196.9105 177.8044 L 196.8185 177.8503 L 196.7265 177.8503 L 196.6346 177.9423 L 196.5426 177.9423 L 196.4506 178.0343 L 196.3586 178.0803 L 196.4506 178.1263 L 196.5426 178.0803 L 196.6346 177.9883 L 196.7265 177.8963 L 196.8185 177.8963 L 196.9105 177.8503 L 197.0025 177.8044 L 197.0944 177.8044 L 197.1864 177.8044 L 197.2784 177.7584 L 197.3704 177.7124 L 197.4623 177.7124 L 197.5543 177.6664 L 197.6463 177.6664 L 197.7383 177.6664 L 197.8302 177.6204 L 197.9222 177.6204 L 198.0142 177.6204 L 198.1061 177.5744 L 198.1981 177.5284 L 198.2901 177.4825 L 198.3821 177.4365 L 198.474 177.4365 L 198.3821 177.4825 L 198.3361 177.5744 L 198.2441 177.5744 L 198.1521 177.6664 L 198.0602 177.6664 L 197.9682 177.7124 L 197.8762 177.7584 L 197.7842 177.7584 L 197.6923 177.8044 L 197.6003 177.8044 L 197.5083 177.8503 L 197.4163 177.8503 L 197.3244 177.9423 L 197.2324 177.9423 L 197.1404 177.9883 L 197.0484 178.0343 L 196.9565 178.1263 L 196.8645 178.1263 L 196.7725 178.1723 L 196.6806 178.2182 L 196.5886 178.2642 L 196.4966 178.3102" fill-rule="evenodd" fill="none" fill-opacity="1" stroke="#000000" stroke-opacity="1" stroke-width="1.411111" stroke-linecap="round" stroke-linejoin="round"/>
<path id="path_347928ea711842118bfe4ad5a3f43c13" d="M 80.44006 245.2369 L 83.61507 246.5764 C 84.64034 247.0229 85.47956 247.3246 86.13275 247.4818 C 86.78594 247.6388 87.41019 247.7174 88.00551 247.7174 C 90.75056 247.7174 92.95405 245.919 94.61597 242.3224 C 96.27789 238.7257 97.10885 234.8686 97.10885 230.751 C 97.10885 226.4019 96.05465 222.9003 93.94625 220.2462 C 91.83784 217.5921 89.08038 216.2651 85.67387 216.2651 C 82.94535 216.2651 80.38633 217.2449 77.99681 219.2044 C 75.60728 221.164 74.41253 223.2352 74.41253 225.418 C 74.41253 227.0551 75.10705 228.1713 76.49612 228.7666 C 77.09143 229.0478 77.38908 229.4198 77.38908 229.8828 C 77.38908 230.3624 76.74003 230.8833 75.44192 231.4455 C 74.1438 232.0078 73.35419 232.2889 73.07307 232.2889 C 72.22971 232.2889 71.48556 231.7969 70.84064 230.813 C 70.19572 229.8291 69.87325 228.7418 69.87325 227.5512 C 69.87325 224.3927 71.52277 221.3955 74.8218 218.5595 C 78.12083 215.7235 82.41618 214.3055 87.70786 214.3055 C 92.76803 214.3055 96.80293 215.6987 99.81256 218.4851 C 102.8222 221.2715 104.327 225.0046 104.327 229.6844 C 104.327 233.2563 103.3968 236.6462 101.5365 239.8543 C 99.67613 243.0624 97.17086 245.609 94.02065 247.4941 C 90.87045 249.3793 87.53422 250.3219 84.01195 250.3219 C 81.05192 250.3219 78.29032 249.6769 75.72717 248.3871 C 73.66011 249.6769 71.8659 250.3219 70.34454 250.3219 C 69.48464 250.3219 68.76118 250.0738 68.17413 249.5777 C 67.58708 249.0816 67.29356 248.4781 67.29356 247.767 C 67.29356 246.6094 67.89714 245.6338 69.10431 244.84 C 70.31147 244.0463 71.82456 243.6494 73.64357 243.6494 C 74.93342 243.6494 76.16538 243.8561 77.33948 244.2695 C 78.38127 243.4096 79.09235 242.3761 79.47268 241.1689 C 79.85302 239.9618 80.23336 237.8286 80.6137 234.7693 C 80.99404 231.7101 81.58936 229.304 82.39965 227.5512 C 83.20994 225.7983 84.40469 224.3307 85.98392 223.1484 C 87.56316 221.966 89.15479 221.2839 90.75883 221.102 L 91.72622 222.4166 C 90.70096 223.4584 89.93615 224.5168 89.43179 225.5916 C 88.92742 226.6665 88.47266 228.9775 88.06752 232.5245 C 87.66238 236.0716 86.88516 238.734 85.73588 240.5116 C 84.58659 242.2893 82.82133 243.8644 80.44006 245.2369 Z" fill-rule="evenodd" fill="#000000" fill-opacity="1" stroke="#000000" stroke-opacity="1" stroke-width="0.7055555" stroke-linecap="round" stroke-linejoin="round"/>
<path id="path_a8e76440663b15bbccc33d80bc96167f" d="M 131.2898 218.5223 C 129.6692 219.1838 128.1974 219.5145 126.8745 219.5145 C 126.0642 219.5145 125.1382 219.3202 124.0964 218.9316 C 123.0546 218.543 122.2691 218.3487 121.7399 218.3487 C 120.4997 218.3487 119.4083 218.82 118.4657 219.7625 C 117.5231 220.7051 117.0518 221.7965 117.0518 223.0367 C 117.0518 224.1447 117.581 225.0542 118.6394 225.7653 C 119.1851 226.1787 119.4579 226.5342 119.4579 226.8319 C 119.4579 227.328 119.1354 227.9357 118.4905 228.655 C 117.8456 229.3743 117.2337 229.734 116.655 229.734 C 115.9935 229.734 115.3899 229.2875 114.8442 228.3946 C 114.2985 227.5016 114.0257 226.4929 114.0257 225.3684 C 114.0257 222.8879 115.2163 220.4323 117.5976 218.0014 C 119.9788 215.5706 122.3766 214.3551 124.7909 214.3551 C 125.502 214.3551 126.428 214.5577 127.5691 214.9628 C 128.7101 215.368 129.694 215.5706 130.5208 215.5706 C 131.4138 215.5706 132.2654 215.2812 133.0757 214.7024 C 133.4395 214.4709 133.7206 214.3551 133.9191 214.3551 C 134.1671 214.3551 134.502 214.4833 134.9236 214.7396 C 135.3453 214.9959 135.5562 215.2729 135.5562 215.5706 C 135.5562 215.7359 135.118 216.3064 134.2415 217.2821 C 132.9186 218.7207 132.0008 220.2958 131.4882 222.0074 C 130.9756 223.7189 130.4547 226.3606 129.9255 229.9324 C 129.3963 233.5043 128.8134 236.4189 128.1768 238.6761 C 127.5401 240.9333 126.5562 242.9756 125.225 244.8028 C 123.8938 246.6301 122.327 247.9985 120.5245 248.908 C 118.722 249.8175 116.7542 250.2722 114.621 250.2722 C 112.0909 250.2722 110.0528 249.6894 108.5066 248.5235 C 106.9605 247.3577 106.1874 246.2456 106.1874 245.1873 C 106.1874 244.5755 106.7827 243.7528 107.9733 242.7192 C 109.1639 241.6857 109.9412 241.1689 110.305 241.1689 C 110.7845 241.1689 111.0822 241.3426 111.1979 241.6898 C 111.3137 242.0371 111.3716 242.6407 111.3716 243.5006 C 111.3716 244.9558 111.6982 246.1258 112.3514 247.0104 C 113.0045 247.8951 113.8603 248.3375 114.9186 248.3375 C 116.4896 248.3375 117.8249 247.5107 118.9246 245.857 C 120.0243 244.2034 120.9214 241.1855 121.6159 236.8033 C 122.3104 232.4212 123.2448 229.056 124.4189 226.7079 C 125.5929 224.3597 127.8832 221.6312 131.2898 218.5223 Z" fill-rule="evenodd" fill="#000000" fill-opacity="1" stroke="#000000" stroke-opacity="1" stroke-width="0.7055555" stroke-linecap="round" stroke-linejoin="round"/>
<path id="path_01f7e33c7b0f00ed04d0742d7ddaa214" d="M 149.7197 245.2369 L 152.8947 246.5764 C 153.9199 247.0229 154.7592 247.3246 155.4124 247.4818 C 156.0655 247.6388 156.6898 247.7174 157.2851 247.7174 C 160.0302 247.7174 162.2336 245.919 163.8956 242.3224 C 165.5575 238.7257 166.3885 234.8686 166.3885 230.751 C 166.3885 226.4019 165.3342 222.9003 163.2258 220.2462 C 161.1174 217.5921 158.36 216.2651 154.9535 216.2651 C 152.2249 216.2651 149.6659 217.2449 147.2764 219.2044 C 144.8869 221.164 143.6921 223.2352 143.6921 225.418 C 143.6921 227.0551 144.3867 228.1713 145.7757 228.7666 C 146.371 229.0478 146.6687 229.4198 146.6687 229.8828 C 146.6687 230.3624 146.0196 230.8833 144.7215 231.4455 C 143.4234 232.0078 142.6338 232.2889 142.3527 232.2889 C 141.5093 232.2889 140.7652 231.7969 140.1202 230.813 C 139.4753 229.8291 139.1529 228.7418 139.1529 227.5512 C 139.1529 224.3927 140.8024 221.3955 144.1014 218.5595 C 147.4004 215.7235 151.6958 214.3055 156.9875 214.3055 C 162.0476 214.3055 166.0825 215.6987 169.0922 218.4851 C 172.1018 221.2715 173.6066 225.0046 173.6066 229.6844 C 173.6066 233.2563 172.6765 236.6462 170.8161 239.8543 C 168.9557 243.0624 166.4505 245.609 163.3003 247.4941 C 160.1501 249.3793 156.8138 250.3219 153.2915 250.3219 C 150.3315 250.3219 147.5699 249.6769 145.0068 248.3871 C 142.9397 249.6769 141.1455 250.3219 139.6241 250.3219 C 138.7643 250.3219 138.0408 250.0738 137.4537 249.5777 C 136.8667 249.0816 136.5732 248.4781 136.5732 247.767 C 136.5732 246.6094 137.1768 245.6338 138.3839 244.84 C 139.5911 244.0463 141.1042 243.6494 142.9232 243.6494 C 144.213 243.6494 145.445 243.8561 146.6191 244.2695 C 147.6609 243.4096 148.3719 242.3761 148.7523 241.1689 C 149.1326 239.9618 149.513 237.8286 149.8933 234.7693 C 150.2737 231.7101 150.8689 229.304 151.6792 227.5512 C 152.4895 225.7983 153.6843 224.3307 155.2635 223.1484 C 156.8428 221.966 158.4344 221.2839 160.0384 221.102 L 161.0058 222.4166 C 159.9806 223.4584 159.2158 224.5168 158.7114 225.5916 C 158.207 226.6665 157.7523 228.9775 157.3471 232.5245 C 156.942 236.0716 156.1648 238.734 155.0155 240.5116 C 153.8662 242.2893 152.1009 243.8644 149.7197 245.2369 Z" fill-rule="evenodd" fill="#000000" fill-opacity="1" stroke="#000000" stroke-opacity="1" stroke-width="0.7055555" stroke-linecap="round" stroke-linejoin="round"/>
<path id="path_5c80171a25dbef5b553823c4be0c08da" d="M 213.4182 244.2199 C 209.6479 248.2548 206.415 250.2722 203.7196 250.2722 C 202.314 250.2722 200.9993 249.6356 199.7756 248.3623 C 198.5519 247.089 197.9897 244.9475 198.0889 241.9379 C 195.195 247.4941 191.9043 250.2722 188.2166 250.2722 C 186.4307 250.2722 184.9961 249.586 183.913 248.2135 C 182.8299 246.8409 182.2883 244.9971 182.2883 242.682 C 182.2883 240.185 183.297 236.0592 185.3145 230.3045 C 187.0177 225.3766 187.8694 222.1024 187.8694 220.4819 C 187.8694 219.3243 187.6006 218.3941 187.0632 217.6913 C 186.5258 216.9886 185.8271 216.6371 184.9672 216.6371 C 183.6608 216.6371 182.3958 217.4102 181.1721 218.9564 C 179.9484 220.5025 179.3365 222.119 179.3365 223.8057 C 179.3365 225.294 179.8905 226.5425 180.9984 227.5512 C 181.4118 227.915 181.6186 228.2209 181.6186 228.469 C 181.6186 229.0147 181.2548 229.6844 180.5272 230.4781 C 179.7995 231.2719 179.1463 231.6688 178.5676 231.6688 C 177.8896 231.6688 177.2447 231.1809 176.6328 230.2053 C 176.021 229.2296 175.715 228.1631 175.715 227.0055 C 175.715 223.847 176.856 220.949 179.1381 218.3115 C 181.4201 215.6739 183.9089 214.3551 186.6043 214.3551 C 188.721 214.3551 190.4408 215.1778 191.7637 216.8232 C 193.0866 218.4686 193.7481 220.6224 193.7481 223.2848 C 193.7481 226.4102 192.7724 230.7097 190.8211 236.1832 C 189.4651 239.9701 188.7871 242.5249 188.7871 243.8479 C 188.7871 244.7078 188.9814 245.3816 189.37 245.8694 C 189.7586 246.3573 190.2919 246.6012 190.9699 246.6012 C 192.2433 246.6012 193.4587 245.7413 194.6162 244.0215 C 195.7738 242.3017 196.6957 240.4992 197.382 238.6141 C 198.0682 236.7289 198.8992 233.9756 199.8748 230.3541 L 202.0328 222.6399 C 202.6282 220.5894 203.1491 218.9068 203.5956 217.5921 C 204.042 216.2775 204.3273 215.5334 204.4513 215.3597 C 204.5753 215.1861 204.782 215.0662 205.0714 215.0001 C 205.3608 214.9339 205.9107 214.8512 206.7209 214.752 L 210.268 214.3551 C 210.7806 214.3551 211.0039 214.4709 210.9377 214.7024 L 209.7719 218.9192 C 208.6805 222.8052 207.5188 227.4106 206.2869 232.7354 C 205.0549 238.0601 204.4389 241.4501 204.4389 242.9053 C 204.4389 243.9967 204.6456 244.869 205.059 245.5222 C 205.4724 246.1754 206.0264 246.502 206.7209 246.502 C 207.4982 246.502 208.3415 246.163 209.251 245.485 C 210.1605 244.807 211.5496 243.4344 213.4182 241.3674 L 213.4182 244.2199 Z" fill-rule="evenodd" fill="#000000" fill-opacity="1" stroke="#000000" stroke-opacity="1" stroke-width="0.7055555" stroke-linecap="round" stroke-linejoin="round"/>
<path id="path_90c129330ec783cb911bdba101f10367" d="M 239.3144 218.82 C 239.3144 219.4649 238.2477 221.0524 236.1145 223.5825 L 235.6681 223.5825 C 235.3373 223.4502 235.1306 222.9623 235.0479 222.119 C 234.866 220.4157 234.279 219.0225 233.2868 217.9394 C 232.2946 216.8563 231.104 216.3147 229.7149 216.3147 C 228.4086 216.3147 227.2841 216.7901 226.3415 217.741 C 225.3989 218.6918 224.9276 219.8287 224.9276 221.1516 C 224.9276 222.1107 225.2253 223.1401 225.8206 224.2398 C 226.4159 225.3394 227.9662 227.0799 230.4714 229.4612 C 232.9767 231.8424 234.5849 233.74 235.296 235.1538 C 236.0071 236.5677 236.3626 237.9113 236.3626 239.1846 C 236.3626 242.1281 235.0852 244.7202 232.5303 246.9608 C 229.9754 249.2015 226.9864 250.3219 223.5634 250.3219 C 220.7356 250.3219 218.404 249.6646 216.5684 248.3499 C 214.7329 247.0352 213.8151 245.9645 213.8151 245.1377 C 213.8151 244.6747 214.3195 243.5998 215.3282 241.9131 C 216.3369 240.2264 216.9157 239.383 217.0645 239.383 C 217.5937 239.383 217.9699 239.536 218.1931 239.8419 C 218.4164 240.1478 218.5693 240.7142 218.652 241.541 C 218.9 244.1207 219.5243 245.8984 220.5248 246.874 C 221.5252 247.8497 222.8275 248.3375 224.4315 248.3375 C 226.1844 248.3375 227.714 247.7298 229.0204 246.5143 C 230.3267 245.2989 230.9799 243.8892 230.9799 242.2852 C 230.9799 241.4583 230.7278 240.5778 230.2234 239.6435 C 229.7191 238.7092 228.2887 237.1217 225.9322 234.881 C 223.5757 232.6403 222.0337 230.7427 221.3061 229.1883 C 220.5785 227.6339 220.2147 226.1208 220.2147 224.649 C 220.2147 222.0859 221.1821 219.7295 223.1169 217.5797 C 225.0517 215.43 227.6231 214.3551 230.8311 214.3551 C 233.262 214.3551 235.2836 214.9132 236.8959 216.0294 C 238.5082 217.1457 239.3144 218.0758 239.3144 218.82 Z" fill-rule="evenodd" fill="#000000" fill-opacity="1" stroke="#000000" stroke-opacity="1" stroke-width="0.7055555" stroke-linecap="round" stroke-linejoin="round"/>
<path id="path_00612d9e28e7faa9808051b762649db0" d="M 54.16889 277.8521 C 54.16889 278.0485 54.136 278.17 54.07021 278.2168 C 54.04097 278.2449 53.93864 278.2682 53.7632 278.2869 C 53.3173 278.343 52.68866 278.3711 51.87727 278.3711 C 50.72963 278.3711 50.0553 278.343 49.85428 278.2869 C 49.65326 278.2308 49.55275 278.1046 49.55275 277.9081 C 49.55275 277.1693 49.58016 276.0587 49.63499 274.5763 C 49.6898 273.094 49.71722 271.9833 49.71722 271.2445 C 49.71722 270.8797 49.63681 270.6693 49.476 270.6132 C 49.22746 270.5384 48.34298 270.5009 46.82253 270.5009 C 45.29478 270.5009 44.40299 270.5384 44.14715 270.6132 C 43.98634 270.6599 43.90593 270.8703 43.90593 271.2444 C 43.90593 271.9739 43.9242 273.0658 43.96075 274.5202 C 43.99729 275.9745 44.01556 277.0664 44.01556 277.7959 C 44.01556 278.0765 43.91689 278.2401 43.71952 278.2869 C 43.4856 278.343 42.79848 278.3711 41.65815 278.3711 C 40.67133 278.3711 40.04268 278.343 39.77222 278.2869 C 39.56023 278.2401 39.45424 278.0952 39.45424 277.852 C 39.45424 276.8419 39.49263 275.3175 39.56938 273.2786 C 39.64613 271.2397 39.6845 269.7106 39.6845 268.6912 C 39.6845 267.6063 39.64796 265.9766 39.57487 263.8022 C 39.50177 261.6277 39.46523 259.998 39.46523 258.9131 C 39.46523 258.7074 39.54198 258.6045 39.69548 258.6045 C 39.92209 258.6045 40.26382 258.6185 40.72068 258.6466 C 41.17754 258.6746 41.51928 258.6887 41.74588 258.6887 C 41.9798 258.6887 42.3325 258.6746 42.80398 258.6466 C 43.27546 258.6185 43.62816 258.6045 43.86208 258.6045 C 43.98634 258.6045 44.04848 258.6887 44.04848 258.857 C 44.04848 259.5584 44.00827 260.6082 43.92786 262.0065 C 43.84745 263.4047 43.80725 264.4545 43.80725 265.1559 C 43.80725 265.4833 43.87669 265.675 44.01558 265.7311 C 44.20564 265.8059 45.14129 265.8434 46.82255 265.8434 C 48.38685 265.8434 49.29326 265.806 49.54179 265.7311 C 49.71723 265.675 49.80495 265.4833 49.80495 265.156 C 49.80495 264.4826 49.77937 263.4655 49.7282 262.1047 C 49.67702 260.7439 49.65144 259.7221 49.65144 259.0394 C 49.65144 258.7495 49.74282 258.6046 49.92556 258.6046 C 50.13755 258.6046 50.46101 258.6185 50.89594 258.6466 C 51.33087 258.6747 51.65799 258.6887 51.87728 258.6887 C 52.08927 258.6887 52.41273 258.6747 52.84766 258.6466 C 53.28259 258.6185 53.60971 258.6046 53.829 258.6046 C 54.04099 258.6046 54.14698 258.7167 54.14698 258.9412 C 54.14698 260.0168 54.11225 261.6394 54.0428 263.8092 C 53.97336 265.979 53.93864 267.6063 53.93864 268.6912 C 53.93864 269.7107 53.97701 271.2398 54.05376 273.2787 C 54.13052 275.3175 54.16889 276.842 54.16889 277.8521 Z" fill-rule="evenodd" fill="#C7E8E5" fill-opacity="1" stroke="#6FC9C0" stroke-opacity="1" stroke-width="1.411111" stroke-linecap="round" stroke-linejoin="round"/>
<path id="path_d12e63467d81c4caad34b693a9e84253" d="M 70.64886 277.9362 C 70.64886 278.1046 70.5575 278.2215 70.37475 278.2869 C 70.15546 278.3618 69.47564 278.3992 68.33531 278.3992 C 67.29001 278.3992 66.61751 278.3618 66.3178 278.2869 C 66.06927 278.2215 65.91212 278.011 65.84632 277.6556 C 65.59779 276.3089 65.40408 275.5887 65.26519 275.4952 C 65.14824 275.4297 64.16872 275.397 62.32664 275.397 C 61.08398 275.397 60.42244 275.4391 60.34203 275.5233 C 60.21777 275.6729 60.07888 276.1733 59.92538 277.0244 C 59.78648 277.8006 59.61836 278.2215 59.421 278.2869 C 59.17246 278.3618 58.33914 278.3992 56.92104 278.3992 C 55.80264 278.3992 55.24344 278.2636 55.24344 277.9923 C 55.24344 277.7492 56.06946 274.761 57.72147 269.0279 C 59.51238 262.8272 60.48459 259.4182 60.63809 258.8009 C 60.72581 258.4455 60.82815 258.2678 60.94511 258.2678 C 61.14247 258.2678 61.44766 258.2912 61.86066 258.338 C 62.27367 258.3847 62.58251 258.4081 62.78718 258.4081 C 62.98455 258.4081 63.27511 258.3917 63.65887 258.359 C 64.04264 258.3263 64.32955 258.3099 64.51961 258.3099 C 64.65849 258.3099 64.78642 258.4642 64.90337 258.7729 C 65.26156 259.7549 66.30685 263.1218 68.03927 268.8736 C 69.77901 274.6628 70.64886 277.6837 70.64886 277.9362 Z M 62.87489 265.156 C 62.72139 265.5675 62.46189 266.4607 62.0964 267.8355 C 61.70167 269.2945 61.5043 270.1502 61.5043 270.4027 C 61.5043 270.5711 61.72359 270.6646 62.16218 270.6833 C 62.38879 270.702 62.76159 270.7114 63.28059 270.7114 C 63.76304 270.7114 64.02984 270.6365 64.081 270.4869 C 64.09563 270.4402 64.10294 270.3747 64.10294 270.2905 C 64.10294 269.9819 63.93481 269.1308 63.59856 267.7373 C 63.26962 266.3905 63.0284 265.5301 62.87489 265.156 Z" fill-rule="evenodd" fill="#C7E8E5" fill-opacity="1" stroke="#6FC9C0" stroke-opacity="1" stroke-width="1.411111" stroke-linecap="round" stroke-linejoin="round"/>
<path id="path_da043104aafe4cc88c7deb588ad02581" d="M 86.43808 259.0394 C 86.43808 260.1056 86.40336 261.7072 86.33392 263.8443 C 86.26447 265.9813 86.22975 267.5876 86.22974 268.6632 L 86.22974 277.9081 C 86.22974 278.1607 86.12375 278.2869 85.91177 278.2869 C 85.73633 278.2869 85.47134 278.2963 85.11682 278.315 C 84.76229 278.3337 84.49731 278.343 84.32188 278.343 C 84.13182 278.343 83.84674 278.3243 83.46663 278.2869 C 83.08652 278.2495 82.80144 278.2308 82.61138 278.2308 C 82.4798 278.2308 82.32265 278.0765 82.1399 277.7679 C 81.61359 276.8607 80.42941 274.8499 78.58733 271.7355 C 78.08295 270.8657 77.31543 269.5844 76.28474 267.8916 C 76.25551 267.8355 76.20069 267.7794 76.12028 267.7232 C 76.06181 267.7887 76.03256 267.8916 76.03256 268.0319 C 76.03255 269.1168 76.05631 270.7441 76.10382 272.9139 C 76.15134 275.0837 76.17509 276.711 76.17509 277.7959 C 76.17509 278.1233 76.07641 278.2869 75.87904 278.2869 L 72.08525 278.2869 C 71.87327 278.2869 71.76727 278.142 71.76727 277.8521 C 71.76727 276.842 71.80566 275.3175 71.88241 273.2787 C 71.95916 271.2398 71.99754 269.7107 71.99754 268.6912 C 71.99754 267.6157 71.96283 266.0071 71.89339 263.8654 C 71.82394 261.7236 71.78922 260.1196 71.78922 259.0534 C 71.78922 258.8477 71.93176 258.7448 72.21684 258.7448 C 72.64082 258.7448 73.16347 258.7074 73.7848 258.6326 C 73.931 258.6139 74.21973 258.5531 74.65102 258.4502 C 75.0165 258.366 75.30525 258.3239 75.51723 258.3239 C 75.60495 258.3239 75.74017 258.4829 75.92292 258.8009 L 80.01275 265.9696 C 80.37824 266.615 80.93014 267.5596 81.66843 268.8034 C 81.85117 269.0934 82.00833 269.2383 82.13991 269.2383 C 82.23494 269.2383 82.28246 268.8736 82.28246 268.1441 C 82.28246 267.1621 82.24043 265.6844 82.15636 263.711 C 82.0723 261.7376 82.03027 260.2552 82.03027 259.2639 C 82.03027 258.9178 82.10702 258.7448 82.26053 258.7448 C 82.69911 258.7448 83.36066 258.7214 84.24514 258.6747 C 85.12963 258.6279 85.79117 258.6046 86.22975 258.6046 C 86.36864 258.6046 86.43808 258.7495 86.43808 259.0394 Z" fill-rule="evenodd" fill="#C7E8E5" fill-opacity="1" stroke="#6FC9C0" stroke-opacity="1" stroke-width="1.411111" stroke-linecap="round" stroke-linejoin="round"/>
<path id="path_62c409d5c22b6e5b12567bdfea52172a" d="M 102.7865 268.3405 C 102.7865 271.0901 102.0957 273.4751 100.7141 275.4952 C 99.49339 277.3003 97.77925 278.2495 95.57169 278.343 C 95.14771 278.3618 93.98178 278.3711 92.07392 278.3711 C 91.71574 278.3711 91.17664 278.3571 90.45663 278.329 C 89.73661 278.301 89.1975 278.2869 88.83932 278.2869 C 88.62734 278.2869 88.52135 278.1794 88.52135 277.9643 C 88.52135 276.9355 88.55241 275.39 88.61455 273.3277 C 88.67668 271.2655 88.70775 269.72 88.70775 268.6912 C 88.70775 267.6157 88.6767 266.0047 88.61456 263.8583 C 88.55243 261.7119 88.52136 260.1056 88.52136 259.0394 C 88.52136 258.843 88.62736 258.7261 88.83934 258.6887 C 89.35834 258.6139 90.20993 258.5764 91.39412 258.5764 C 93.64554 258.5764 95.10383 258.6186 95.76903 258.7027 C 97.50145 258.9272 98.85742 259.4883 99.83691 260.3862 C 100.758 261.2279 101.4853 262.4063 102.0189 263.9214 C 102.5306 265.3524 102.7865 266.8254 102.7865 268.3405 Z M 98.58699 268.3405 C 98.58699 266.7599 98.2178 265.4693 97.47952 264.4685 C 96.73392 263.4304 95.74712 262.9113 94.51906 262.9113 C 93.39335 262.9113 92.83051 263.1031 92.83051 263.4865 C 92.83051 264.0383 92.82318 264.8684 92.80856 265.9767 C 92.79395 267.0849 92.78664 267.9149 92.78664 268.4668 C 92.78664 269.0092 92.79395 269.8252 92.80856 270.9148 C 92.82318 272.0044 92.83049 272.8251 92.83049 273.3769 C 92.83049 273.779 93.41528 273.9801 94.58485 273.9801 C 95.84943 273.9801 96.8436 273.4423 97.56726 272.3668 C 98.24707 271.3474 98.58699 270.0052 98.58699 268.3405 Z" fill-rule="evenodd" fill="#C7E8E5" fill-opacity="1" stroke="#6FC9C0" stroke-opacity="1" stroke-width="1.411111" stroke-linecap="round" stroke-linejoin="round"/>
<path id="path_f3987042a5268ef64d0384395da7daca" d="M 120.8344 277.8521 C 120.8344 278.142 120.7284 278.2869 120.5164 278.2869 L 116.6349 278.2869 C 116.4229 278.2869 116.3169 278.1233 116.3169 277.7959 C 116.3169 276.8513 116.3443 275.4344 116.3992 273.5452 C 116.454 271.656 116.4814 270.2391 116.4814 269.2945 C 116.4814 269.0232 116.4485 268.8783 116.3827 268.8596 C 116.3023 268.9157 115.8126 270.3607 114.9135 273.1945 L 113.3345 278.1747 C 113.2614 278.3898 113.1701 278.5161 113.0604 278.5535 C 113.0239 278.5628 112.8777 278.5675 112.6218 278.5675 C 112.2417 278.5675 112.0151 278.474 111.942 278.2869 C 111.5473 277.2581 111.0283 275.7617 110.385 273.7977 C 109.6979 271.7215 109.1826 270.2204 108.839 269.2945 C 108.8244 269.2477 108.7915 269.1963 108.7403 269.1401 C 108.6891 269.2243 108.6636 269.36 108.6636 269.547 C 108.6636 270.4636 108.6818 271.8383 108.7184 273.6714 C 108.7549 275.5045 108.7732 276.8794 108.7732 277.7959 C 108.7732 278.1233 108.6709 278.2869 108.4662 278.2869 L 104.804 278.2869 C 104.6578 278.2869 104.5682 278.2565 104.5353 278.1957 C 104.5024 278.1349 104.486 278.0297 104.486 277.8801 C 104.486 276.8607 104.5244 275.3292 104.6011 273.2857 C 104.6779 271.2422 104.7163 269.7107 104.7163 268.6912 C 104.7163 267.6063 104.6797 265.5721 104.6066 262.5887 C 104.5993 261.8124 104.5664 260.6574 104.5079 259.1236 L 104.4969 258.8851 C 104.4896 258.698 104.6431 258.6046 104.9575 258.6046 C 105.3595 258.6046 105.9626 258.5881 106.7666 258.5554 C 107.5707 258.5227 108.1738 258.5063 108.5758 258.5063 C 108.6562 258.5063 108.7695 258.7027 108.9157 259.0955 L 112.1174 268.088 C 112.3441 268.6959 112.5341 268.9998 112.6876 268.9998 C 112.768 268.9998 112.9398 268.6491 113.203 267.9477 C 113.9413 265.9837 115.034 263.0236 116.4814 259.0675 C 116.6056 258.7027 116.7409 258.5204 116.8871 258.5204 C 117.099 258.5204 117.4189 258.5344 117.8465 258.5624 C 118.2741 258.5905 118.5976 258.6046 118.8169 258.6046 C 118.9996 258.6046 119.2792 258.5811 119.6557 258.5344 C 120.0321 258.4876 120.3117 258.4642 120.4944 258.4642 C 120.7137 258.4642 120.8234 258.5764 120.8234 258.8009 C 120.8234 259.9045 120.7923 261.5529 120.7302 263.7461 C 120.6681 265.9392 120.637 267.5876 120.637 268.6912 C 120.637 269.7107 120.6699 271.2398 120.7357 273.2787 C 120.8015 275.3175 120.8344 276.842 120.8344 277.8521 Z" fill-rule="evenodd" fill="#C7E8E5" fill-opacity="1" stroke="#6FC9C0" stroke-opacity="1" stroke-width="1.411111" stroke-linecap="round" stroke-linejoin="round"/>
<path id="path_572e73e8f73fe2ec4c721f79c1a57c3d" d="M 137.3363 277.9361 C 137.3363 278.1045 137.2449 278.2214 137.0621 278.2868 C 136.8428 278.3617 136.1631 278.3991 135.0227 278.3991 C 133.9774 278.3991 133.3049 278.3617 133.0052 278.2868 C 132.7567 278.2214 132.5995 278.0109 132.5337 277.6555 C 132.2852 276.3088 132.0915 275.5886 131.9526 275.4951 C 131.8356 275.4296 130.8561 275.3969 129.0141 275.3969 C 127.7714 275.3969 127.1098 275.439 127.0294 275.5232 C 126.9052 275.6728 126.7663 276.1732 126.6128 277.0242 C 126.4739 277.8005 126.3058 278.2214 126.1084 278.2869 C 125.8599 278.3617 125.0266 278.3991 123.6085 278.3991 C 122.4901 278.3991 121.9308 278.2635 121.9308 277.9923 C 121.9308 277.7491 122.7569 274.761 124.4089 269.0279 C 126.1998 262.8271 127.172 259.4181 127.3255 258.8008 C 127.4132 258.4455 127.5155 258.2677 127.6325 258.2677 C 127.8298 258.2677 128.135 258.2911 128.548 258.3379 C 128.961 258.3847 129.2699 258.408 129.4745 258.408 C 129.6719 258.408 129.9625 258.3916 130.3463 258.3589 C 130.73 258.3262 131.0169 258.3098 131.207 258.3098 C 131.3459 258.3098 131.4738 258.4641 131.5907 258.7728 C 131.9489 259.7548 132.9943 263.1217 134.7267 268.8735 C 136.4664 274.6627 137.3363 277.6836 137.3363 277.9361 Z M 129.5623 265.1559 C 129.4088 265.5674 129.1493 266.4605 128.7838 267.8354 C 128.3891 269.2944 128.1917 270.1501 128.1917 270.4026 C 128.1917 270.571 128.411 270.6645 128.8496 270.6832 C 129.0762 270.7019 129.449 270.7113 129.968 270.7113 C 130.4504 270.7113 130.7172 270.6364 130.7684 270.4868 C 130.783 270.4401 130.7903 270.3746 130.7903 270.2904 C 130.7903 269.9818 130.6222 269.1307 130.2859 267.7372 C 129.957 266.3904 129.7158 265.53 129.5623 265.1559 Z" fill-rule="evenodd" fill="#C7E8E5" fill-opacity="1" stroke="#6FC9C0" stroke-opacity="1" stroke-width="1.411111" stroke-linecap="round" stroke-linejoin="round"/>
<path id="path_a2a47d17fb54c6611c8847bf7cb6dac6" d="M 152.7636 268.3405 C 152.7636 271.0901 152.0729 273.475 150.6913 275.4952 C 149.4706 277.3002 147.7564 278.2495 145.5488 278.343 C 145.1249 278.3617 143.959 278.371 142.0511 278.371 C 141.6929 278.371 141.1538 278.357 140.4338 278.3289 C 139.7138 278.3009 139.1747 278.2869 138.8165 278.2869 C 138.6045 278.2869 138.4985 278.1793 138.4985 277.9642 C 138.4985 276.9354 138.5296 275.3899 138.5917 273.3277 C 138.6539 271.2654 138.6849 269.7199 138.6849 268.6912 C 138.6849 267.6156 138.6538 266.0046 138.5917 263.8582 C 138.5296 261.7118 138.4985 260.1055 138.4985 259.0393 C 138.4985 258.8429 138.6045 258.726 138.8165 258.6886 C 139.3355 258.6138 140.1871 258.5764 141.3712 258.5764 C 143.6227 258.5764 145.081 258.6185 145.7462 258.7027 C 147.4786 258.9272 148.8346 259.4883 149.8141 260.3861 C 150.7351 261.2279 151.4625 262.4063 151.9961 263.9214 C 152.5078 265.3524 152.7636 266.8253 152.7636 268.3405 Z M 148.5641 268.3405 C 148.5641 266.7599 148.195 265.4692 147.4567 264.4685 C 146.7111 263.4304 145.7243 262.9113 144.4962 262.9113 C 143.3705 262.9113 142.8076 263.1031 142.8076 263.4865 C 142.8076 264.0383 142.8003 264.8683 142.7857 265.9766 C 142.7711 267.0849 142.7638 267.9149 142.7638 268.4667 C 142.7638 269.0092 142.7711 269.8252 142.7857 270.9148 C 142.8004 272.0043 142.8077 272.825 142.8077 273.3768 C 142.8077 273.779 143.3925 273.98 144.562 273.98 C 145.8266 273.98 146.8208 273.4423 147.5444 272.3668 C 148.2242 271.3474 148.5641 270.0052 148.5641 268.3405 Z" fill-rule="evenodd" fill="#C7E8E5" fill-opacity="1" stroke="#6FC9C0" stroke-opacity="1" stroke-width="1.411111" stroke-linecap="round" stroke-linejoin="round"/>
<path id="path_3e0f3ca914c128c32eb4ba299bcea96a" d="M 165.691 273.924 C 165.691 274.3261 165.6289 275.0649 165.5046 276.1405 C 165.3731 277.3096 165.2561 278.0063 165.1538 278.2308 C 165.066 278.4085 164.9454 278.4973 164.7919 278.4973 C 164.7261 278.4973 164.6165 278.4833 164.463 278.4552 C 163.9294 278.3617 162.3724 278.3149 159.792 278.3149 C 159.2292 278.3149 158.3922 278.3103 157.2811 278.3009 C 156.17 278.2916 155.3367 278.2869 154.7811 278.2869 C 154.5399 278.2869 154.4193 278.1513 154.4193 277.8801 C 154.4193 276.8326 154.465 275.259 154.5564 273.1594 C 154.6477 271.0597 154.6934 269.4861 154.6934 268.4387 C 154.6934 267.3725 154.6496 265.3851 154.5618 262.4764 C 154.5399 261.7282 154.4997 260.6106 154.4412 259.1235 L 154.4302 258.9272 C 154.4156 258.712 154.507 258.6045 154.7044 258.6045 C 155.2453 258.6045 156.0585 258.6232 157.144 258.6606 C 158.2295 258.698 159.0427 258.7167 159.5836 258.7167 C 160.1173 258.7167 160.9214 258.698 161.9959 258.6606 C 163.0704 258.6232 163.8745 258.6045 164.4081 258.6045 C 164.7883 258.6045 165.0075 258.7869 165.066 259.1516 C 165.1026 259.3667 165.1592 260.019 165.236 261.1086 C 165.3127 262.1982 165.3511 262.8599 165.3511 263.0937 C 165.3511 263.2901 165.278 263.3883 165.1318 263.3883 C 165.088 263.3883 165.0112 263.3836 164.9016 263.3743 C 162.9571 263.1685 161.2101 263.0656 159.6604 263.0656 C 159.273 263.0656 159.0354 263.1826 158.9477 263.4164 C 158.9112 263.5286 158.8929 263.8887 158.8929 264.4966 C 158.8929 265.1325 158.966 265.5534 159.1122 265.7592 C 159.2365 265.9369 159.474 266.0257 159.8249 266.0257 C 159.898 266.0257 160.0405 266.0187 160.2525 266.0047 C 160.4645 265.9906 160.6399 265.9836 160.7788 265.9836 C 161.6999 265.9836 162.6319 265.9509 163.5748 265.8854 L 164.1779 265.8153 C 164.4264 265.7779 164.6238 265.7592 164.77 265.7592 C 164.9454 265.7592 165.0331 265.8667 165.0331 266.0818 C 165.0331 265.8854 164.9674 266.6009 164.8358 268.2282 C 164.7773 268.9764 164.7481 269.7246 164.7481 270.4728 C 164.7481 270.6599 164.6421 270.7534 164.4301 270.7534 L 163.4433 270.6132 C 163.0266 270.5571 162.0763 270.529 160.5924 270.529 L 159.4302 270.529 C 159.1305 270.529 158.955 270.6225 158.9039 270.8095 C 158.8966 270.8563 158.8929 271.1462 158.8929 271.6793 C 158.8929 272.3901 158.9295 272.8484 159.0025 273.0541 C 159.1268 273.4095 159.5947 273.62 160.406 273.6855 L 162.0069 273.6855 C 162.3943 273.6855 162.97 273.641 163.7338 273.5522 C 164.4977 273.4633 165.0697 273.4189 165.4498 273.4189 C 165.6106 273.4189 165.691 273.5872 165.691 273.924 Z" fill-rule="evenodd" fill="#C7E8E5" fill-opacity="1" stroke="#6FC9C0" stroke-opacity="1" stroke-width="1.411111" stroke-linecap="round" stroke-linejoin="round"/>
<path id="path_6abdb1266f21919ab67bd6d1f3baa00f" d="M 185.5701 275.1164 C 185.5701 275.266 185.4933 275.4624 185.3398 275.7056 C 183.9948 277.7538 182.2075 278.7779 179.978 278.7779 C 177.6974 278.7779 175.848 277.7819 174.4299 275.7898 C 173.0483 273.8632 172.3576 271.4315 172.3576 268.4948 C 172.3576 265.6516 173.0337 263.2386 174.386 261.2559 C 175.7968 259.1797 177.5914 258.1415 179.7697 258.1415 C 182.1381 258.1415 183.9948 259.0721 185.3398 260.9333 C 185.486 261.139 185.5591 261.3214 185.5591 261.4804 C 185.5591 261.6581 185.3051 262.3174 184.797 263.4584 C 184.289 264.5995 183.9692 265.2401 183.8376 265.3804 C 183.7791 265.4552 183.706 265.4926 183.6183 265.4926 C 183.5818 265.4926 183.399 265.3056 183.0701 264.9315 C 182.6754 264.4825 182.2879 264.1318 181.9078 263.8793 C 181.3304 263.5052 180.7309 263.3181 180.1096 263.3181 C 179.035 263.3181 178.1761 263.8326 177.5329 264.8613 C 176.9408 265.8153 176.6448 266.9937 176.6448 268.3966 C 176.6448 269.8182 176.9408 271.0106 177.5329 271.9739 C 178.1762 273.0214 179.0351 273.5452 180.1096 273.5452 C 180.7456 273.5452 181.3486 273.3675 181.9188 273.0121 C 182.2916 272.7783 182.6717 272.4509 183.0591 272.0301 C 183.3808 271.6747 183.5598 271.4969 183.5964 271.4969 C 183.6695 271.4969 183.7426 271.5484 183.8157 271.6513 C 183.9326 271.8196 184.2506 272.4041 184.7696 273.4049 C 185.3032 274.443 185.5701 275.0135 185.5701 275.1164 Z" fill-rule="evenodd" fill="#C7E8E5" fill-opacity="1" stroke="#6FC9C0" stroke-opacity="1" stroke-width="1.411111" stroke-linecap="round" stroke-linejoin="round"/>
<path id="path_efa53abae0ef171c6dc9a974dd179a05" d="M 199.8242 278.1466 C 199.8242 278.2121 199.7511 278.2589 199.6049 278.2869 C 199.3271 278.343 198.6291 278.3711 197.5107 278.3711 C 196.5531 278.3711 195.9025 278.343 195.5589 278.2869 C 195.3981 278.2589 195.3067 278.2354 195.2848 278.2168 C 195.241 278.1887 195.1898 278.0952 195.1313 277.9362 C 195.0217 277.5714 194.8609 277.029 194.6489 276.3088 C 194.3638 275.3736 193.9179 273.9941 193.3112 272.1703 C 193.1796 271.8056 192.8763 271.6045 192.4011 271.5671 C 192.6204 271.5858 192.2439 271.5952 191.2717 271.5952 C 191.1621 271.5952 191.1073 271.8336 191.1073 272.3106 C 191.1073 272.9466 191.153 273.8959 191.2443 275.1585 C 191.3357 276.4211 191.3814 277.3704 191.3814 278.0063 C 191.3814 278.1653 191.3485 278.2589 191.2827 278.2869 L 190.9757 278.3149 C 190.5444 278.3524 189.8719 278.3711 188.9582 278.3711 C 187.9129 278.3711 187.2842 278.343 187.0723 278.2869 C 186.8603 278.2308 186.7543 278.0858 186.7543 277.852 C 186.7543 276.8232 186.7927 275.2707 186.8694 273.1944 C 186.9462 271.1182 186.9845 269.561 186.9845 268.5229 C 186.9845 264.5667 186.9151 261.4804 186.7762 259.2638 L 186.7652 259.0674 C 186.7579 258.9084 186.873 258.8009 187.1106 258.7448 C 187.3482 258.6887 188.4647 258.6325 190.4603 258.5764 C 191.8126 258.539 192.8908 258.5203 193.6949 258.5203 C 195.3615 258.5203 196.7212 259.002 197.7738 259.9653 C 198.9653 261.0502 199.5611 262.6167 199.5611 264.6649 C 199.5611 266.0304 199.4076 267.12 199.1005 267.9336 C 198.7935 268.7473 198.227 269.5376 197.401 270.3045 C 197.2329 270.4541 197.1488 270.5944 197.1488 270.7254 L 198.4865 274.2466 C 199.3783 276.6034 199.8242 277.9034 199.8242 278.1466 Z M 195.219 265.5628 C 195.219 264.4218 194.9266 263.6315 194.3418 263.1919 C 193.8886 262.8552 193.1796 262.6869 192.2147 262.6869 C 191.5203 262.6869 191.1511 262.8225 191.1072 263.0937 C 191.0634 263.4117 191.0415 264.3282 191.0415 265.8434 C 191.0415 266.0584 191.0451 266.3764 191.0524 266.7973 C 191.0597 267.2182 191.0634 267.5315 191.0634 267.7372 C 191.0634 267.784 191.1803 267.8307 191.4143 267.8775 C 191.8602 267.9617 192.328 268.0038 192.8178 268.0038 C 194.4186 268.0038 195.219 267.1901 195.219 265.5628 Z" fill-rule="evenodd" fill="#C7E8E5" fill-opacity="1" stroke="#6FC9C0" stroke-opacity="1" stroke-width="1.411111" stroke-linecap="round" stroke-linejoin="round"/>
<path id="path_f8508244dbd02ae02a67c51b3bc51b8e" d="M 216.2932 268.4667 C 216.2932 271.3847 215.5659 273.8304 214.1112 275.8038 C 212.6273 277.8052 210.7487 278.8059 208.4753 278.8059 C 206.2166 278.8059 204.3416 277.7959 202.8504 275.7757 C 201.3885 273.8023 200.6575 271.366 200.6575 268.4667 C 200.6575 265.5581 201.3885 263.1124 202.8504 261.1296 C 204.3416 259.1001 206.2166 258.0854 208.4753 258.0854 C 210.7194 258.0854 212.5907 259.1001 214.0893 261.1296 C 215.5585 263.1311 216.2932 265.5768 216.2932 268.4667 Z M 212.1376 268.4386 C 212.1376 267.0358 211.8049 265.8433 211.1398 264.8613 C 210.4453 263.8325 209.5572 263.3181 208.4753 263.3181 C 207.4446 263.3181 206.5711 263.8512 205.8548 264.9174 C 205.1603 265.9462 204.8131 267.1293 204.8131 268.4667 C 204.8131 269.8976 205.1384 271.0901 205.789 272.0441 C 206.4761 273.0448 207.3716 273.5451 208.4753 273.5451 C 209.506 273.5451 210.3832 273.0167 211.1069 271.9599 C 211.794 270.9498 212.1376 269.7761 212.1376 268.4386 Z" fill-rule="evenodd" fill="#C7E8E5" fill-opacity="1" stroke="#6FC9C0" stroke-opacity="1" stroke-width="1.411111" stroke-linecap="round" stroke-linejoin="round"/>
<path id="path_8504baa783af24ae00ea5d22244102c1" d="M 230.7337 275.1164 C 230.7337 275.266 230.657 275.4624 230.5035 275.7056 C 229.1584 277.7538 227.3712 278.7779 225.1417 278.7779 C 222.8611 278.7779 221.0117 277.7818 219.5936 275.7897 C 218.2121 273.8631 217.5213 271.4315 217.5213 268.4948 C 217.5213 265.6516 218.1974 263.2386 219.5497 261.2559 C 220.9605 259.1796 222.7551 258.1415 224.9334 258.1415 C 227.3018 258.1415 229.1585 259.0721 230.5035 260.9332 C 230.6497 261.139 230.7228 261.3214 230.7228 261.4803 C 230.7228 261.6581 230.4688 262.3174 229.9607 263.4584 C 229.4527 264.5994 229.1328 265.2401 229.0013 265.3804 C 228.9428 265.4552 228.8697 265.4926 228.782 265.4926 C 228.7455 265.4926 228.5627 265.3055 228.2338 264.9314 C 227.8391 264.4825 227.4516 264.1318 227.0715 263.8793 C 226.494 263.5052 225.8947 263.3181 225.2733 263.3181 C 224.1988 263.3181 223.3398 263.8325 222.6966 264.8613 C 222.1045 265.8152 221.8085 266.9937 221.8085 268.3966 C 221.8085 269.8182 222.1045 271.0106 222.6966 271.9739 C 223.3399 273.0214 224.1987 273.5451 225.2733 273.5451 C 225.9092 273.5451 226.5123 273.3675 227.0825 273.0121 C 227.4553 272.7783 227.8354 272.4509 228.2228 272.03 C 228.5444 271.6746 228.7235 271.4969 228.7601 271.4969 C 228.8332 271.4969 228.9063 271.5484 228.9794 271.6512 C 229.0964 271.8196 229.4143 272.4041 229.9333 273.4048 C 230.4669 274.443 230.7337 275.0135 230.7337 275.1164 Z" fill-rule="evenodd" fill="#C7E8E5" fill-opacity="1" stroke="#6FC9C0" stroke-opacity="1" stroke-width="1.411111" stroke-linecap="round" stroke-linejoin="round"/>
<path id="path_536a3d5d348fc24f7c0297958831660b" d="M 246.6326 277.8519 C 246.6326 278.0483 246.5997 278.1699 246.5339 278.2167 C 246.5047 278.2448 246.4023 278.2681 246.2269 278.2868 C 245.781 278.343 245.1523 278.371 244.341 278.371 C 243.1933 278.371 242.519 278.343 242.318 278.2868 C 242.1169 278.2307 242.0164 278.1045 242.0164 277.9081 C 242.0164 277.1693 242.0439 276.0586 242.0987 274.5762 C 242.1535 273.0938 242.1809 271.9832 242.1809 271.2444 C 242.1809 270.8796 242.1005 270.6692 241.9397 270.6131 C 241.6912 270.5383 240.8067 270.5009 239.2863 270.5009 C 237.7585 270.5009 236.8667 270.5382 236.6109 270.613 C 236.45 270.6598 236.3696 270.8702 236.3696 271.2444 C 236.3696 271.9738 236.3879 273.0657 236.4245 274.5201 C 236.461 275.9744 236.4792 277.0663 236.4792 277.7958 C 236.4792 278.0764 236.3806 278.2401 236.1832 278.2868 C 235.9493 278.3429 235.2622 278.371 234.1219 278.371 C 233.135 278.371 232.5064 278.3429 232.2359 278.2868 C 232.0239 278.2401 231.918 278.0951 231.918 277.852 C 231.918 276.8419 231.9563 275.3174 232.0331 273.2786 C 232.1098 271.2397 232.1482 269.7105 232.1482 268.6911 C 232.1482 267.6062 232.1117 265.9766 232.0385 263.8021 C 231.9655 261.6277 231.9289 259.998 231.9289 258.9131 C 231.9289 258.7073 232.0057 258.6044 232.1592 258.6044 C 232.3858 258.6044 232.7275 258.6184 233.1844 258.6465 C 233.6412 258.6745 233.983 258.6886 234.2096 258.6886 C 234.4435 258.6886 234.7962 258.6745 235.2677 258.6465 C 235.7392 258.6184 236.0919 258.6044 236.3257 258.6044 C 236.45 258.6044 236.5121 258.6886 236.5121 258.8569 C 236.5121 259.5584 236.472 260.6082 236.3916 262.0064 C 236.3112 263.4046 236.271 264.4544 236.271 265.1559 C 236.271 265.4832 236.3404 265.6749 236.4792 265.731 C 236.6693 265.8059 237.605 265.8433 239.2863 265.8433 C 240.8506 265.8433 241.757 265.8059 242.0055 265.731 C 242.1809 265.6749 242.2686 265.4832 242.2686 265.1559 C 242.2686 264.4825 242.243 263.4654 242.1919 262.1046 C 242.1407 260.7438 242.1152 259.722 242.1152 259.0393 C 242.1152 258.7494 242.2065 258.6044 242.3893 258.6044 C 242.6013 258.6044 242.9247 258.6184 243.3596 258.6465 C 243.7946 258.6746 244.1217 258.6886 244.341 258.6886 C 244.553 258.6886 244.8764 258.6746 245.3114 258.6465 C 245.7463 258.6184 246.0734 258.6044 246.2927 258.6044 C 246.5047 258.6044 246.6107 258.7166 246.6107 258.9411 C 246.6107 260.0167 246.576 261.6393 246.5065 263.8091 C 246.4371 265.9789 246.4023 267.6062 246.4023 268.6911 C 246.4023 269.7106 246.4407 271.2397 246.5175 273.2786 C 246.5942 275.3174 246.6326 276.8419 246.6326 277.8519 Z" fill-rule="evenodd" fill="#C7E8E5" fill-opacity="1" stroke="#6FC9C0" stroke-opacity="1" stroke-width="1.411111" stroke-linecap="round" stroke-linejoin="round"/>
<path id="path_b784702f4d37e3454ae776614a7a160c" d="M 259.878 273.9239 C 259.878 274.326 259.8158 275.0649 259.6916 276.1405 C 259.56 277.3095 259.443 278.0063 259.3407 278.2307 C 259.253 278.4084 259.1324 278.4973 258.9789 278.4973 C 258.9131 278.4973 258.8034 278.4833 258.6499 278.4552 C 258.1162 278.3617 256.5593 278.3149 253.9789 278.3149 C 253.4161 278.3149 252.5791 278.3102 251.468 278.3009 C 250.3569 278.2915 249.5236 278.2869 248.968 278.2869 C 248.7268 278.2869 248.6062 278.1512 248.6062 277.88 C 248.6062 276.8326 248.6519 275.259 248.7433 273.1593 C 248.8347 271.0597 248.8803 269.4861 248.8803 268.4386 C 248.8803 267.3725 248.8365 265.385 248.7488 262.4764 C 248.7268 261.7282 248.6866 260.6106 248.6282 259.1235 L 248.6172 258.9271 C 248.6026 258.712 248.6939 258.6045 248.8913 258.6045 C 249.4323 258.6045 250.2455 258.6231 251.331 258.6606 C 252.4165 258.698 253.2297 258.7167 253.7706 258.7167 C 254.3042 258.7167 255.1083 258.698 256.1829 258.6606 C 257.2574 258.6231 258.0615 258.6045 258.5951 258.6045 C 258.9752 258.6045 259.1945 258.7868 259.253 259.1516 C 259.2895 259.3667 259.3462 260.019 259.4229 261.1086 C 259.4997 262.1982 259.5381 262.8599 259.5381 263.0937 C 259.5381 263.2901 259.465 263.3883 259.3188 263.3883 C 259.2749 263.3883 259.1982 263.3836 259.0885 263.3742 C 257.1441 263.1685 255.397 263.0656 253.8474 263.0656 C 253.4599 263.0656 253.2224 263.1825 253.1346 263.4163 C 253.0981 263.5286 253.0798 263.8886 253.0798 264.4966 C 253.0798 265.1325 253.1529 265.5534 253.2991 265.7591 C 253.4234 265.9368 253.6609 266.0257 254.0118 266.0257 C 254.0849 266.0257 254.2274 266.0187 254.4394 266.0046 C 254.6514 265.9906 254.8268 265.9836 254.9657 265.9836 C 255.8868 265.9836 256.8188 265.9509 257.7618 265.8854 L 258.3648 265.8152 C 258.6134 265.7778 258.8107 265.7591 258.9569 265.7591 C 259.1324 265.7591 259.2201 265.8667 259.2201 266.0818 C 259.2201 265.8854 259.1543 266.6009 259.0227 268.2282 C 258.9642 268.9764 258.935 269.7246 258.935 270.4728 C 258.935 270.6599 258.829 270.7534 258.617 270.7534 L 257.6302 270.6131 C 257.2135 270.557 256.2632 270.5289 254.7793 270.5289 L 253.6171 270.5289 C 253.3174 270.5289 253.1419 270.6225 253.0908 270.8095 C 253.0835 270.8563 253.0798 271.1462 253.0798 271.6793 C 253.0798 272.3901 253.1164 272.8484 253.1895 273.0541 C 253.3138 273.4095 253.7816 273.6199 254.5929 273.6854 L 256.1938 273.6854 C 256.5812 273.6854 257.1569 273.641 257.9207 273.5522 C 258.6846 273.4633 259.2566 273.4189 259.6367 273.4189 C 259.7975 273.4189 259.878 273.5872 259.878 273.9239 Z" fill-rule="evenodd" fill="#C7E8E5" fill-opacity="1" stroke="#6FC9C0" stroke-opacity="1" stroke-width="1.411111" stroke-linecap="round" stroke-linejoin="round"/>
<path id="path_577344c0eafe17a0367c6c17c13c51e5" d="M 272.0159 262.8972 C 272.0159 263.0843 271.9355 263.1778 271.7747 263.1778 C 271.4969 263.1778 270.3968 263.1077 268.4743 262.9674 C 268.4305 265.3336 268.4085 266.9843 268.4085 267.9196 C 268.4085 269.0232 268.4432 270.6833 268.5127 272.8998 C 268.5822 275.1164 268.6169 276.7764 268.6169 277.88 C 268.6169 278.0577 268.584 278.17 268.5182 278.2167 C 268.4962 278.2354 268.3939 278.2588 268.2112 278.2869 C 267.7726 278.3617 267.1293 278.3991 266.2814 278.3991 C 265.3384 278.3991 264.6768 278.3617 264.2968 278.2869 C 264.0921 278.2401 263.9897 278.0951 263.9897 277.852 C 263.9898 276.7484 264.0263 275.093 264.0994 272.8858 C 264.1725 270.6786 264.209 269.0232 264.209 267.9196 C 264.209 267.1901 264.1798 265.5627 264.1213 263.0375 C 262.6594 263.2246 261.4934 263.3181 260.6236 263.3181 C 260.5066 263.3181 260.4481 263.2714 260.4481 263.1778 C 260.4481 263.0562 260.4993 262.6962 260.6017 262.0976 C 260.7186 261.4429 260.7844 261.0455 260.799 260.9052 C 260.8209 260.4656 260.8466 260.026 260.8758 259.5865 C 260.927 258.885 261.0147 258.5343 261.1389 258.5343 L 261.2924 258.5483 C 262.4766 258.7447 264.2273 258.8429 266.5445 258.8429 C 267.2024 258.8429 268.4158 258.7541 270.1848 258.5764 L 271.6212 258.4361 C 271.7674 258.4361 271.8514 258.4478 271.8734 258.4712 C 271.8953 258.4946 271.9099 258.5858 271.9173 258.7447 C 271.9173 258.9973 271.9099 259.348 271.8953 259.7969 C 271.8807 260.2926 271.8734 260.6433 271.8734 260.8491 C 271.8734 261.0829 271.8972 261.4266 271.9447 261.8802 C 271.9922 262.3338 272.0159 262.6728 272.0159 262.8972 Z" fill-rule="evenodd" fill="#C7E8E5" fill-opacity="1" stroke="#6FC9C0" stroke-opacity="1" stroke-width="1.411111" stroke-linecap="round" stroke-linejoin="round"/>
</defs>
<g>
<use xlink:href="#path_e56e9fbddfcb850213344c23d6b9332a"/>
</g>
<g>
<use xlink:href="#path_b92f1cd44d1148d72b0a3643ebac45ef"/>
</g>
<g>
<use xlink:href="#path_38a43753d72438bf17d9201e48d8b68a"/>
</g>
<g>
<use xlink:href="#path_9905581ce78aafd0e17f4a9de268f62e"/>
</g>
<g>
<use xlink:href="#path_d5da27c840dea4b7547e2d86b0f31b5a"/>
</g>
<g>
<use xlink:href="#path_83e3916260326fd6afef89cc17166dd5"/>
</g>
<g>
<use xlink:href="#path_94e09a883112c9b3cf12280e27f35131"/>
</g>
<g>
<use xlink:href="#path_a2ea57487a682e0377ce5956663f21df"/>
</g>
<g>
<use xlink:href="#path_8bdc584c8545a8f240fa45593c288546"/>
</g>
<g>
<use xlink:href="#path_3195afee94a48671bd99bdca84fb1431"/>
</g>
<g>
<use xlink:href="#path_398f513151316f384fc812a41f70d2a8"/>
</g>
<g>
<use xlink:href="#path_735631fb91745b5b05f9a0ee160fcf9a"/>
</g>
<g>
<use xlink:href="#path_0e8e4a8f3d3892864d87631086f7e364"/>
</g>
<g>
<use xlink:href="#path_ee4046f29b9f8a4b59109372177916db"/>
</g>
<g>
<use xlink:href="#path_cf6c008785f79757b10125da95e76c51"/>
</g>
<g>
<use xlink:href="#path_2b308a82889391a2e7dee9ad5d05eb69"/>
</g>
<g>
<use xlink:href="#path_813b913a5f048ec0ca36e407379ef894"/>
</g>
<g>
<use xlink:href="#path_9eed236dad9918282f86e1b8bb401b0f"/>
</g>
<g>
<use xlink:href="#path_00a77ba29bc4ca6e28a71c143926484a"/>
</g>
<g>
<use xlink:href="#path_3384b2851713d5575318581f50060ce3"/>
</g>
<g>
<use xlink:href="#path_f37b4a1064f7107bb07fa0385547e068"/>
</g>
<g>
<use xlink:href="#path_e0de6126c3a0ef28586be7ec4ce733c9"/>
</g>
<g>
<use xlink:href="#path_046ff8df0d07521a1f669ac51e843f0f"/>
</g>
<g>
<use xlink:href="#path_de10da09d285be6cde01e8cd6f5cad63"/>
</g>
<g>
<use xlink:href="#path_8af7fcf7d043322779b00d38fe5b586a"/>
</g>
<g>
<use xlink:href="#path_93564a8e9973ec7ce182edb7277fb113"/>
</g>
<g>
<use xlink:href="#path_484266d460d07c25f52eb17deb2845a6"/>
</g>
<g>
<use xlink:href="#path_88c2c6ee26ecd52454e1060b245133b2"/>
</g>
<g>
<use xlink:href="#path_b6fe160601813a0e9df2e634db453035"/>
</g>
<g>
<use xlink:href="#path_3318b33a437d4faf4b682700624396ad"/>
</g>
<g>
<use xlink:href="#path_8accbd894d189d761b1f973820dacaf3"/>
</g>
<g>
<use xlink:href="#path_6086bf4306ae5394ea07115b5596cad5"/>
</g>
<g>
<use xlink:href="#path_51b8315beedc4096733c43be4ee7ec9c"/>
</g>
<g>
<use xlink:href="#path_844362ef679741349191ba06282ebad3"/>
</g>
<g>
<use xlink:href="#path_3ef1671da386639e8f9b0da29be0bd52"/>
</g>
<g>
<use xlink:href="#path_0212c0a5bfd49edb49d0528ed7462a24"/>
</g>
<g>
<use xlink:href="#path_56b9c19a0751ca732be66e64f5a095e4"/>
</g>
<g>
<use xlink:href="#path_d3417356467bdc7c037c02e304f720a7"/>
</g>
<g>
<use xlink:href="#path_0ff97fe241f97b280484a0f4b643c18e"/>
</g>
<g>
<use xlink:href="#path_60a5eae169b043aeacd07fd82f255ca9"/>
</g>
<g>
<use xlink:href="#path_b7497fd820eee62da38dd1935d09c3a2"/>
</g>
<g>
<use xlink:href="#path_df8dc538b73d5260fe3c0f8cc2736230"/>
</g>
<g>
<use xlink:href="#path_7002ac4571387451aaef95d421b6ce1a"/>
</g>
<g>
<use xlink:href="#path_936badda352beeec7544544fff271782"/>
</g>
<g>
<use xlink:href="#path_90d8a7b631172d04625d972e37bd96a2"/>
</g>
<g>
<g>
<use xlink:href="#path_347928ea711842118bfe4ad5a3f43c13"/>
</g>
<g>
<use xlink:href="#path_a8e76440663b15bbccc33d80bc96167f"/>
</g>
<g>
<use xlink:href="#path_01f7e33c7b0f00ed04d0742d7ddaa214"/>
</g>
<g>
<use xlink:href="#path_5c80171a25dbef5b553823c4be0c08da"/>
</g>
<g>
<use xlink:href="#path_90c129330ec783cb911bdba101f10367"/>
</g>
</g>
<g>
<g>
<use xlink:href="#path_00612d9e28e7faa9808051b762649db0"/>
</g>
<g>
<use xlink:href="#path_d12e63467d81c4caad34b693a9e84253"/>
</g>
<g>
<use xlink:href="#path_da043104aafe4cc88c7deb588ad02581"/>
</g>
<g>
<use xlink:href="#path_62c409d5c22b6e5b12567bdfea52172a"/>
</g>
<g>
<use xlink:href="#path_f3987042a5268ef64d0384395da7daca"/>
</g>
<g>
<use xlink:href="#path_572e73e8f73fe2ec4c721f79c1a57c3d"/>
</g>
<g>
<use xlink:href="#path_a2a47d17fb54c6611c8847bf7cb6dac6"/>
</g>
<g>
<use xlink:href="#path_3e0f3ca914c128c32eb4ba299bcea96a"/>
</g>
<g>
<use xlink:href="#path_6abdb1266f21919ab67bd6d1f3baa00f"/>
</g>
<g>
<use xlink:href="#path_efa53abae0ef171c6dc9a974dd179a05"/>
</g>
<g>
<use xlink:href="#path_f8508244dbd02ae02a67c51b3bc51b8e"/>
</g>
<g>
<use xlink:href="#path_8504baa783af24ae00ea5d22244102c1"/>
</g>
<g>
<use xlink:href="#path_536a3d5d348fc24f7c0297958831660b"/>
</g>
<g>
<use xlink:href="#path_b784702f4d37e3454ae776614a7a160c"/>
</g>
<g>
<use xlink:href="#path_577344c0eafe17a0367c6c17c13c51e5"/>
</g>
</g>
</svg>