<?xml version="1.0" encoding="iso-8859-1"?>
<!-- Generator: Adobe Illustrator 19.0.0, SVG Export Plug-In . SVG Version: 6.00 Build 0)  -->
<svg version="1.1" id="Layer_1" xmlns="http://www.w3.org/2000/svg" xmlns:xlink="http://www.w3.org/1999/xlink" x="0px" y="0px"
	 viewBox="0 0 512.001 512.001" style="enable-background:new 0 0 512.001 512.001;" xml:space="preserve">
<g>
	<g>
		<path d="M480.478,152.103c-14.424,0-26.158,10.696-26.158,23.843v28.02c0,6.717-6.762,12.181-15.074,12.181
			c-8.312,0-15.074-5.464-15.074-12.181V63.87c0-8.175-3.417-15.94-9.621-21.867c-7.112-6.792-17.165-10.413-27.534-9.94
			c-19.714,0.902-33.484,16.767-33.484,38.582v55.934c0,9.178-8.315,17.025-18.534,17.492c-6.144,0.281-11.967-1.766-15.998-5.617
			c-3.081-2.943-4.777-6.686-4.777-10.54h-0.275C309.226,56.68,241.895,0,159.796,0C74.643,0,5.366,60.973,5.366,135.919v48.033
			h15.665v-12.453L194.916,19.57c5.671,1.287,11.2,2.879,16.566,4.752L19.422,192.13H5.366v127.74h36.029v118.861
			c-12.911-18.258-20.364-39.713-20.364-62.65v-48.032H5.366v48.033c0,74.946,69.277,135.919,154.43,135.919
			s154.429-60.973,154.429-135.919v-48.033h-15.665v12.453L124.677,492.431c-5.671-1.287-11.2-2.879-16.566-4.752l192.06-167.808
			h14.054v-127.74h-36.817V72.175c13.393,18.492,21.153,40.346,21.153,63.744v48.033h15.665v-29.57
			c6.269,3.78,13.782,5.687,21.491,5.337c18.776-0.858,33.484-15.416,33.484-33.14V70.645c0-13.416,7.276-22.418,18.534-22.933
			c6.12-0.285,11.967,1.767,15.998,5.618c3.081,2.943,4.777,6.686,4.777,10.54v140.095c0,15.354,13.789,27.845,30.738,27.845
			c16.949,0,30.738-12.491,30.738-27.845v-28.021c0-4.433,4.806-8.178,10.493-8.178s10.492,3.745,10.492,8.178v248.168
			c0,8.924-8.816,16.184-19.654,16.184s-19.655-7.26-19.655-16.184v-32.022c0-17.561-15.844-31.848-35.319-31.848
			c-10.838,0-19.655-7.26-19.655-16.184v-24.016h-15.665v24.016c0,17.561,15.844,31.848,35.32,31.848
			c10.838,0,19.654,7.26,19.654,16.184v32.022c0,17.561,15.844,31.848,35.32,31.848c19.474,0,35.319-14.287,35.319-31.848V175.945
			C506.635,162.8,494.901,152.103,480.478,152.103z M125.511,19.382L25.054,107.156C37.257,64.228,76.129,30.299,125.511,19.382z
			 M21.031,150.697v-14.778c0-1.522,0.044-3.035,0.109-4.543L153.422,15.797c2.114-0.083,4.238-0.132,6.374-0.132
			c5.061,0,10.056,0.242,14.978,0.703L21.031,150.697z M194.081,492.618l100.457-87.773
			C282.335,447.772,243.464,481.701,194.081,492.618z M298.561,361.304v14.778c0,1.522-0.044,3.035-0.109,4.543L166.17,496.204
			c-2.114,0.084-4.238,0.132-6.374,0.132c-5.061,0-10.056-0.242-14.977-0.703L298.561,361.304z M239.814,37.725
			c7.972,4.894,15.32,10.498,21.931,16.705V192.13h-21.931V37.725z M224.149,34.055v19.226L65.233,192.13H43.229L224.149,34.055z
			 M224.149,183.276v8.854h-89.296l10.133-8.854H224.149z M162.914,167.612l16.733-14.62h44.501v14.62H162.914z M197.576,137.327
			l26.573-23.218v23.218H197.576z M111.045,192.13H89.04L224.149,74.082v19.226L111.045,192.13z M78.99,473.785
			c-7.983-4.972-15.337-10.656-21.93-16.95V319.87h21.93V473.785z M208.547,319.87h22.004L94.655,438.607v-19.226L208.547,319.87z
			 M94.655,398.58v-23.15h26.496L94.655,398.58z M174.937,328.435H94.655v-8.565h90.085L174.937,328.435z M157.008,344.1
			l-17.929,15.665H94.655V344.1H157.008z M94.655,478.634v-19.226L254.359,319.87h22.005L94.655,478.634z M298.56,304.205H21.031
			v-40.517h30.147v24.16h217.235v-24.16h30.147V304.205z M66.843,272.184v-32.367h185.906v32.367H66.843z M298.561,207.795v40.229
			h-30.147v-23.872H51.178v23.872H21.031v-40.229H298.561z"/>
	</g>
</g>
<g>
	<g>
		<rect x="78.992" y="248.024" width="34.462" height="15.665"/>
	</g>
</g>
<g>
	<g>
		<rect x="134.341" y="248.024" width="106.52" height="15.665"/>
	</g>
</g>
<g>
</g>
<g>
</g>
<g>
</g>
<g>
</g>
<g>
</g>
<g>
</g>
<g>
</g>
<g>
</g>
<g>
</g>
<g>
</g>
<g>
</g>
<g>
</g>
<g>
</g>
<g>
</g>
<g>
</g>
</svg>
